<svg viewBox="0 0 92 92" fill="none" xmlns="http://www.w3.org/2000/svg">
<path fill-rule="evenodd" clip-rule="evenodd" d="M51.8859 42.3967C51.2238 42.3792 49.4987 42.3334 48.3094 42.4014C48.2936 42.4023 48.2777 42.4028 48.2618 42.4028H48.2485L46.1047 42.7668C46.0912 42.7691 46.0776 42.7711 46.0639 42.7727C46.0408 42.779 46.015 42.7859 45.9882 42.7931L45.9759 42.7964C45.8878 42.8199 45.7686 42.8517 45.6174 42.894C45.3013 42.9823 44.8431 43.1168 44.26 43.3103C43.0935 43.6974 41.4239 44.3219 39.3908 45.2871C39.3342 45.3139 39.2748 45.3343 39.2137 45.3479L35.1024 46.2615C35.0981 46.2628 35.0936 46.264 35.0889 46.2653C34.8929 46.3203 34.3758 46.4652 33.8635 46.7502C33.2887 47.07 32.9177 47.4557 32.8387 47.8958C32.8354 47.9142 32.8315 47.9326 32.8269 47.9508C32.8091 48.0222 32.6884 48.6421 32.7661 49.691C32.7859 49.9588 32.6759 50.2166 32.476 50.3875V51.2144H34.1882C34.6495 51.2144 35.0235 51.5883 35.0235 52.0496C35.0235 52.5109 34.6495 52.8848 34.1882 52.8848H32.309C31.4719 52.8848 30.8056 52.2186 30.8056 51.3814V50.2956C30.8056 50.0143 30.883 49.6975 31.0781 49.4255C31.0406 48.4749 31.1398 47.8308 31.1993 47.5749C31.4213 46.4016 32.3367 45.6881 33.0513 45.2905C33.7443 44.9049 34.4324 44.7139 34.6328 44.6583C34.6474 44.6542 34.6595 44.6509 34.6687 44.6482C34.6847 44.6437 34.7008 44.6396 34.717 44.636L38.7598 43.7376C40.8226 42.7629 42.5261 42.1257 43.7338 41.7249C44.3461 41.5217 44.8302 41.3795 45.1679 41.2851C45.3284 41.2403 45.4554 41.2064 45.5441 41.1827L45.5571 41.1792C45.6015 41.1674 45.6304 41.1596 45.6497 41.1542C45.7273 41.1273 45.8085 41.112 45.8908 41.1088L48.0384 40.7441C48.0846 40.7363 48.1314 40.7323 48.1783 40.7323H48.2378C48.9959 40.6901 49.9485 40.6907 50.7161 40.7011C51.1068 40.7064 51.4549 40.7143 51.7127 40.7208C51.8232 40.7237 51.9174 40.7262 51.9907 40.7283L52.0255 40.7292C52.0644 40.7303 52.0951 40.7311 52.1179 40.7317C52.1394 40.7322 52.1471 40.7323 52.1471 40.7323C52.1471 40.7323 52.1465 40.7323 52.1456 40.7323C52.1648 40.7323 52.1841 40.733 52.2033 40.7343C56.4227 41.0267 60.2518 42.6798 61.1034 43.0698L63.5662 43.635C63.5714 43.6362 63.5767 43.6375 63.5819 43.6388C63.9536 43.7317 64.2342 43.9352 64.4595 44.2328C64.8196 44.6956 64.981 45.3266 65.0676 45.8031C65.1367 46.1827 65.173 46.5584 65.1956 46.844L65.3474 47.0338C65.5455 47.2526 65.6516 47.5306 65.6724 47.7823C65.8268 48.7437 65.7705 49.5268 65.6616 50.1014C65.5537 50.6708 65.377 51.0782 65.3828 51.0609C65.3703 51.0984 65.3551 51.1349 65.3375 51.1703C65.3212 51.2028 65.3047 51.2322 65.2883 51.2588C65.2514 51.3564 65.1963 51.4471 65.1249 51.5257C64.8798 51.7953 64.5168 51.9618 64.2431 52.0687C63.9334 52.1897 63.5709 52.295 63.2032 52.3856C62.4652 52.5673 61.6295 52.7079 60.9841 52.794C60.5268 52.855 60.1067 52.5337 60.0458 52.0765C59.9848 51.6192 60.3061 51.1992 60.7633 51.1382C61.3707 51.0572 62.1428 50.9264 62.8038 50.7636C63.1356 50.6819 63.4204 50.5967 63.6354 50.5127C63.7267 50.4771 63.7899 50.4474 63.8316 50.426C63.8364 50.4188 63.8411 50.412 63.8456 50.4057C63.8956 50.2767 63.9619 50.0989 64.0204 49.7904C64.0963 49.3899 64.1439 48.8045 64.0241 48.0537L63.7294 47.6853C63.6237 47.5531 63.5606 47.3919 63.5485 47.2231L63.5475 47.2087C63.5263 46.9119 63.4971 46.5033 63.4241 46.1019C63.3442 45.6622 63.2354 45.3786 63.1402 45.2574C63.1382 45.2549 63.1362 45.2523 63.1343 45.2498L60.6451 44.6785C60.5878 44.6653 60.532 44.6461 60.4787 44.6213C59.8792 44.3415 56.1627 42.6883 52.1101 42.4023C52.0644 42.4015 51.9877 42.3994 51.8859 42.3967Z" fill="#F91C3D"/>
<path fill-rule="evenodd" clip-rule="evenodd" d="M44.1004 52.5637C42.3171 52.6365 40.9355 52.6929 40.1013 52.6759C39.6401 52.6665 39.2739 52.285 39.2833 51.8238C39.2927 51.3626 39.6742 50.9964 40.1354 51.0058C40.9134 51.0217 42.2198 50.9684 43.9903 50.8962C44.4731 50.8765 44.9904 50.8555 45.5408 50.834C48.0876 50.7346 51.2946 50.6298 54.9436 50.6298C55.4049 50.6298 55.7788 51.0037 55.7788 51.465C55.7788 51.9263 55.4049 52.3002 54.9436 52.3002C51.3261 52.3002 48.1436 52.4042 45.606 52.5032C45.0775 52.5238 44.5748 52.5443 44.1004 52.5637Z" fill="#F91C3D"/>
<path fill-rule="evenodd" clip-rule="evenodd" d="M57.8669 49.878C56.9918 49.878 56.2799 50.5898 56.2799 51.4649C56.2799 52.34 56.9918 53.0518 57.8669 53.0518C58.7419 53.0518 59.4538 52.34 59.4538 51.4649C59.4538 50.5898 58.7419 49.878 57.8669 49.878ZM54.6095 51.4649C54.6095 49.6673 56.0692 48.2075 57.8669 48.2075C59.6645 48.2075 61.1242 49.6673 61.1242 51.4649C61.1242 53.2625 59.6645 54.7223 57.8669 54.7223C56.0692 54.7223 54.6095 53.2625 54.6095 51.4649Z" fill="#F91C3D"/>
<path fill-rule="evenodd" clip-rule="evenodd" d="M37.028 50.2538C36.1529 50.2538 35.4411 50.9657 35.4411 51.8407C35.4411 52.7158 36.1529 53.4277 37.028 53.4277C37.8707 53.4277 38.6149 52.7065 38.6149 51.8407C38.6149 50.9657 37.9031 50.2538 37.028 50.2538ZM33.7706 51.8407C33.7706 50.0431 35.2304 48.5834 37.028 48.5834C38.8257 48.5834 40.2854 50.0431 40.2854 51.8407C40.2854 53.6477 38.7745 55.0981 37.028 55.0981C35.2304 55.0981 33.7706 53.6384 33.7706 51.8407Z" fill="#F91C3D"/>
<path fill-rule="evenodd" clip-rule="evenodd" d="M34.3135 63.5339C34.3135 63.0726 34.6875 62.6987 35.1488 62.6987H61.4583C61.9196 62.6987 62.2936 63.0726 62.2936 63.5339C62.2936 63.9952 61.9196 64.3691 61.4583 64.3691H35.1488C34.6875 64.3691 34.3135 63.9952 34.3135 63.5339Z" fill="#344974"/>
<path fill-rule="evenodd" clip-rule="evenodd" d="M34.3135 69.5475C34.3135 69.0862 34.6875 68.7123 35.1488 68.7123H48.1365C48.5978 68.7123 48.9717 69.0862 48.9717 69.5475C48.9717 70.0088 48.5978 70.3827 48.1365 70.3827H35.1488C34.6875 70.3827 34.3135 70.0088 34.3135 69.5475Z" fill="#344974"/>
<path fill-rule="evenodd" clip-rule="evenodd" d="M26.5459 16.3019C26.0467 16.3019 25.669 16.6797 25.669 17.1789V78.1085C25.669 78.6078 26.0467 78.9855 26.5459 78.9855H69.9776C70.4769 78.9855 70.8546 78.6078 70.8546 78.1085V29.749C70.8546 29.5074 70.7729 29.3037 70.5988 29.1292C70.5986 29.129 70.5983 29.1288 70.5981 29.1286L57.9464 16.5604L57.9445 16.5584C57.7699 16.3838 57.5659 16.3019 57.324 16.3019H26.5459ZM23.9985 17.1789C23.9985 15.7571 25.1242 14.6315 26.5459 14.6315H57.324C58.0003 14.6315 58.6312 14.8833 59.1247 15.3763C59.125 15.3766 59.1253 15.3769 59.1256 15.3772L71.7793 27.9474C72.2729 28.441 72.5251 29.0722 72.5251 29.749V78.1085C72.5251 79.5303 71.3994 80.656 69.9776 80.656H26.5459C25.1242 80.656 23.9985 79.5303 23.9985 78.1085V17.1789Z" fill="#344974"/>
<path fill-rule="evenodd" clip-rule="evenodd" d="M58.0339 15.0908C58.4952 15.0908 58.8691 15.4648 58.8691 15.926V27.3269C58.8691 27.8261 59.2469 28.2039 59.7461 28.2039H71.2305C71.6918 28.2039 72.0657 28.5778 72.0657 29.0391C72.0657 29.5004 71.6918 29.8743 71.2305 29.8743H59.7461C58.3243 29.8743 57.1987 28.7487 57.1987 27.3269V15.926C57.1987 15.4648 57.5726 15.0908 58.0339 15.0908Z" fill="#344974"/>
<path fill-rule="evenodd" clip-rule="evenodd" d="M25.5437 12.7105C23.541 12.7105 21.9104 14.3411 21.9104 16.3437V76.2293C21.9104 76.6906 21.5365 77.0645 21.0752 77.0645C20.6139 77.0645 20.24 76.6906 20.24 76.2293V16.3437C20.24 13.4185 22.6185 11.04 25.5437 11.04H54.3172C54.7784 11.04 55.1524 11.414 55.1524 11.8753C55.1524 12.3365 54.7784 12.7105 54.3172 12.7105H25.5437Z" fill="#344974"/>
</svg>
