<svg viewBox="0 0 92 92" fill="none" xmlns="http://www.w3.org/2000/svg">
<path fill-rule="evenodd" clip-rule="evenodd" d="M34.2718 63.5339C34.2718 63.0726 34.6457 62.6987 35.107 62.6987H61.4583C61.9196 62.6987 62.2936 63.0726 62.2936 63.5339C62.2936 63.9952 61.9196 64.3691 61.4583 64.3691H35.107C34.6457 64.3691 34.2718 63.9952 34.2718 63.5339Z" fill="#344974"/>
<path fill-rule="evenodd" clip-rule="evenodd" d="M34.2718 69.5475C34.2718 69.0862 34.6457 68.7123 35.107 68.7123H48.1365C48.5978 68.7123 48.9717 69.0862 48.9717 69.5475C48.9717 70.0088 48.5978 70.3827 48.1365 70.3827H35.107C34.6457 70.3827 34.2718 70.0088 34.2718 69.5475Z" fill="#344974"/>
<path fill-rule="evenodd" clip-rule="evenodd" d="M26.5042 16.3019C26.005 16.3019 25.6272 16.6797 25.6272 17.1789V78.1085C25.6272 78.6078 26.005 78.9855 26.5042 78.9855H69.9776C70.4769 78.9855 70.8546 78.6078 70.8546 78.1085V29.749C70.8546 29.5569 70.7695 29.3419 70.557 29.1292C70.5568 29.129 70.5566 29.1288 70.5564 29.1286L57.9047 16.5604L57.9027 16.5584C57.7281 16.3838 57.5242 16.3019 57.2822 16.3019H26.5042ZM23.9568 17.1789C23.9568 15.7571 25.0824 14.6315 26.5042 14.6315H57.2822C57.9586 14.6315 58.5895 14.8833 59.0829 15.3763C59.0832 15.3766 59.0836 15.3769 59.0839 15.3772L71.7375 27.9474C72.1928 28.4026 72.5251 29.0226 72.5251 29.749V78.1085C72.5251 79.5303 71.3994 80.656 69.9776 80.656H26.5042C25.0824 80.656 23.9568 79.5303 23.9568 78.1085V17.1789Z" fill="#344974"/>
<path fill-rule="evenodd" clip-rule="evenodd" d="M57.9922 15.0908C58.4534 15.0908 58.8274 15.4648 58.8274 15.926V27.3269C58.8274 27.8261 59.2051 28.2038 59.7044 28.2038H71.1887C71.65 28.2038 72.0239 28.5778 72.0239 29.0391C72.0239 29.5004 71.65 29.8743 71.1887 29.8743H59.7044C58.2826 29.8743 57.1569 28.7487 57.1569 27.3269V15.926C57.1569 15.4648 57.5309 15.0908 57.9922 15.0908Z" fill="#344974"/>
<path fill-rule="evenodd" clip-rule="evenodd" d="M25.5437 12.7105C23.5411 12.7105 21.9105 14.3411 21.9105 16.3437V76.2293C21.9105 76.6906 21.5365 77.0646 21.0752 77.0646C20.6139 77.0646 20.24 76.6906 20.24 76.2293V16.3437C20.24 13.4185 22.6185 11.04 25.5437 11.04H54.3172C54.7785 11.04 55.1524 11.414 55.1524 11.8753C55.1524 12.3365 54.7785 12.7105 54.3172 12.7105H25.5437Z" fill="#344974"/>
<path fill-rule="evenodd" clip-rule="evenodd" d="M35.4829 43.1127C35.9441 43.1127 36.3181 43.4866 36.3181 43.9479V57.5621C36.3181 58.0233 35.9441 58.3973 35.4829 58.3973C35.0216 58.3973 34.6476 58.0233 34.6476 57.5621V43.9479C34.6476 43.4866 35.0216 43.1127 35.4829 43.1127Z" fill="#F91C3D"/>
<path fill-rule="evenodd" clip-rule="evenodd" d="M34.6476 57.5621C34.6476 57.1008 35.0216 56.7269 35.4829 56.7269H44.3362C44.7975 56.7269 45.1715 57.1008 45.1715 57.5621C45.1715 58.0234 44.7975 58.3973 44.3362 58.3973H35.4829C35.0216 58.3973 34.6476 58.0234 34.6476 57.5621Z" fill="#F91C3D"/>
<path fill-rule="evenodd" clip-rule="evenodd" d="M61.0407 43.1127C61.502 43.1127 61.8759 43.4866 61.8759 43.9479V57.5621C61.8759 58.0233 61.502 58.3973 61.0407 58.3973C60.5794 58.3973 60.2055 58.0233 60.2055 57.5621V43.9479C60.2055 43.4866 60.5794 43.1127 61.0407 43.1127Z" fill="#F91C3D"/>
<path fill-rule="evenodd" clip-rule="evenodd" d="M51.3939 57.5621C51.3939 57.1008 51.7678 56.7269 52.2291 56.7269H61.0407C61.502 56.7269 61.8759 57.1008 61.8759 57.5621C61.8759 58.0234 61.502 58.3973 61.0407 58.3973H52.2291C51.7678 58.3973 51.3939 58.0234 51.3939 57.5621Z" fill="#F91C3D"/>
<path fill-rule="evenodd" clip-rule="evenodd" d="M43.501 50.8385C43.501 50.3772 43.875 50.0033 44.3362 50.0033H52.2291C52.6904 50.0033 53.0643 50.3772 53.0643 50.8385V57.5621C53.0643 58.0234 52.6904 58.3973 52.2291 58.3973C51.7678 58.3973 51.3939 58.0234 51.3939 57.5621V51.6737H45.1715V57.5621C45.1715 58.0234 44.7975 58.3973 44.3362 58.3973C43.875 58.3973 43.501 58.0234 43.501 57.5621V50.8385Z" fill="#F91C3D"/>
<path fill-rule="evenodd" clip-rule="evenodd" d="M47.7201 32.4542C48.0319 32.1885 48.4904 32.1882 48.8026 32.4535L64.0872 45.4413C64.4387 45.74 64.4816 46.267 64.1829 46.6186C63.8842 46.9701 63.3571 47.0129 63.0056 46.7142L48.2625 34.1866L33.5606 46.7135C33.2095 47.0126 32.6824 46.9705 32.3832 46.6194C32.084 46.2683 32.1261 45.7412 32.4773 45.442L47.7201 32.4542Z" fill="#F91C3D"/>
<path fill-rule="evenodd" clip-rule="evenodd" d="M37.9885 33.8417C37.9885 33.3804 38.3625 33.0065 38.8238 33.0065H42.0394C42.5006 33.0065 42.8746 33.3804 42.8746 33.8417V38.3937C42.8746 38.855 42.5006 39.2289 42.0394 39.2289C41.5781 39.2289 41.2041 38.855 41.2041 38.3937V34.6769H39.659V41.1499C39.659 41.6112 39.285 41.9851 38.8238 41.9851C38.3625 41.9851 37.9885 41.6112 37.9885 41.1499V33.8417Z" fill="#F91C3D"/>
</svg>
