<svg viewBox="0 0 92 92" fill="none" xmlns="http://www.w3.org/2000/svg">
<path fill-rule="evenodd" clip-rule="evenodd" d="M23.8457 53.7885C21.7595 53.7885 20.0454 55.5026 20.0454 57.5888V66.7762C20.0454 68.8624 21.7595 70.5765 23.8457 70.5765H76.5901C78.6763 70.5765 80.3904 68.8624 80.3904 66.7762V57.5888C80.3904 55.5026 78.6763 53.7885 76.5901 53.7885H23.8457ZM18.3749 57.5888C18.3749 54.58 20.8369 52.118 23.8457 52.118H76.5901C79.5988 52.118 82.0608 54.58 82.0608 57.5888V66.7762C82.0608 69.7849 79.5988 72.2469 76.5901 72.2469H23.8457C20.8369 72.2469 18.3749 69.7849 18.3749 66.7762V57.5888Z" fill="#344974"/>
<path fill-rule="evenodd" clip-rule="evenodd" d="M26.5601 58.2151C26.0527 58.2151 25.6414 58.6265 25.6414 59.1339C25.6414 59.6413 26.0527 60.0526 26.5601 60.0526C27.0676 60.0526 27.4789 59.6413 27.4789 59.1339C27.4789 58.6265 27.0675 58.2151 26.5601 58.2151ZM23.9709 59.1339C23.9709 57.7039 25.1302 56.5447 26.5601 56.5447C27.9901 56.5447 29.1493 57.7039 29.1493 59.1339C29.1493 60.5639 27.9901 61.7231 26.5601 61.7231C25.1302 61.7231 23.9709 60.5639 23.9709 59.1339Z" fill="#344974"/>
<path fill-rule="evenodd" clip-rule="evenodd" d="M26.5601 64.8551C26.0527 64.8551 25.6414 65.2665 25.6414 65.7739C25.6414 66.2813 26.0527 66.6926 26.5601 66.6926C27.0676 66.6926 27.4789 66.2813 27.4789 65.7739C27.4789 65.2665 27.0676 64.8551 26.5601 64.8551ZM23.9709 65.7739C23.9709 64.3439 25.1302 63.1847 26.5601 63.1847C27.9901 63.1847 29.1493 64.3439 29.1493 65.7739C29.1493 67.2039 27.9901 68.3631 26.5601 68.3631C25.1302 68.3631 23.9709 67.2038 23.9709 65.7739Z" fill="#344974"/>
<path fill-rule="evenodd" clip-rule="evenodd" d="M34.6201 36.1652C35.0813 36.1652 35.4553 36.5391 35.4553 37.0004V52.9532C35.4553 53.4145 35.0813 53.7884 34.6201 53.7884C34.1588 53.7884 33.7848 53.4145 33.7848 52.9532V37.0004C33.7848 36.5391 34.1588 36.1652 34.6201 36.1652Z" fill="#344974"/>
<path fill-rule="evenodd" clip-rule="evenodd" d="M38.3309 26.3453C38.657 26.0192 39.1859 26.0192 39.5121 26.3453C40.8422 27.6755 41.7195 29.3809 41.7195 31.2791C41.7195 33.0614 40.994 34.6837 39.7737 35.951C39.4537 36.2833 38.925 36.2933 38.5927 35.9733C38.2604 35.6534 38.2504 35.1246 38.5704 34.7924C39.5216 33.8045 40.049 32.5871 40.049 31.2791C40.049 29.9199 39.4229 28.6185 38.3309 27.5265C38.0047 27.2003 38.0047 26.6715 38.3309 26.3453Z" fill="#F91C3D"/>
<path fill-rule="evenodd" clip-rule="evenodd" d="M44.1899 23.2846C44.5228 22.9653 45.0515 22.9763 45.3708 23.3092C47.4652 25.4927 48.6936 28.2415 48.6936 31.2373C48.6936 34.1482 47.5085 36.8045 45.5565 38.9783C45.2483 39.3215 44.7203 39.3499 44.3771 39.0417C44.0338 38.7335 44.0054 38.2054 44.3136 37.8622C46.0366 35.9434 47.0231 33.6718 47.0231 31.2373C47.0231 28.7206 45.9964 26.3746 44.1653 24.4655C43.846 24.1326 43.857 23.6039 44.1899 23.2846Z" fill="#F91C3D"/>
<path fill-rule="evenodd" clip-rule="evenodd" d="M50.8385 19.6433C51.1759 19.3287 51.7044 19.3472 52.019 19.6846C55.021 22.9042 56.837 26.9011 56.837 31.2374C56.837 35.3998 55.1849 39.2786 52.3545 42.4453C52.2996 42.5309 52.2194 42.6235 52.1043 42.7002C51.9464 42.8055 51.7735 42.847 51.6169 42.847C51.1556 42.847 50.7817 42.4731 50.7817 42.0118C50.7817 41.9204 50.7963 41.8325 50.8234 41.7503L50.8234 41.6484L50.952 41.5062C50.9806 41.4687 51.0123 41.4336 51.0467 41.4014C53.6774 38.4881 55.1666 34.9687 55.1666 31.2374C55.1666 27.3885 53.5582 23.7848 50.7972 20.8238C50.4826 20.4864 50.5011 19.9579 50.8385 19.6433Z" fill="#F91C3D"/>
<path fill-rule="evenodd" clip-rule="evenodd" d="M30.6892 26.3343C31.0215 26.6543 31.0314 27.183 30.7115 27.5153C29.7603 28.5031 29.2329 29.7205 29.2329 31.0285C29.2329 32.3877 29.859 33.6891 30.951 34.7811C31.2772 35.1073 31.2772 35.6361 30.951 35.9623C30.6248 36.2885 30.096 36.2885 29.7698 35.9623C28.4397 34.6322 27.5624 32.9268 27.5624 31.0285C27.5624 29.2462 28.2879 27.6239 29.5082 26.3566C29.8282 26.0243 30.3569 26.0143 30.6892 26.3343Z" fill="#F91C3D"/>
<path fill-rule="evenodd" clip-rule="evenodd" d="M24.9048 23.2659C25.248 23.5741 25.2764 24.1022 24.9682 24.4454C23.2452 26.3642 22.2587 28.6358 22.2587 31.0703C22.2587 33.587 23.2855 35.933 25.1166 37.8421C25.4359 38.175 25.4249 38.7037 25.092 39.023C24.7591 39.3423 24.2304 39.3313 23.9111 38.9984C21.8167 36.8149 20.5883 34.0661 20.5883 31.0703C20.5883 28.1594 21.7734 25.5031 23.7253 23.3293C24.0335 22.9861 24.5616 22.9577 24.9048 23.2659Z" fill="#F91C3D"/>
<path fill-rule="evenodd" clip-rule="evenodd" d="M18.2352 20.9063C15.6045 23.8196 14.1153 27.339 14.1153 31.0703C14.1153 34.9192 15.7237 38.5229 18.4847 41.4839C18.7993 41.8213 18.7808 42.3498 18.4434 42.6644C18.106 42.979 17.5775 42.9605 17.2629 42.6231C14.2609 39.4035 12.4448 35.4066 12.4448 31.0703C12.4448 26.9079 14.0969 23.0291 16.9274 19.8624C16.9822 19.7768 17.0625 19.6842 17.1775 19.6075C17.3354 19.5022 17.5084 19.4607 17.665 19.4607C18.1263 19.4607 18.5002 19.8346 18.5002 20.2959C18.5002 20.3873 18.4856 20.4752 18.4585 20.5574L18.4585 20.6593L18.3299 20.8015C18.3013 20.839 18.2696 20.8741 18.2352 20.9063Z" fill="#F91C3D"/>
</svg>
