<svg viewBox="0 0 92 92" fill="none" xmlns="http://www.w3.org/2000/svg">
<path fill-rule="evenodd" clip-rule="evenodd" d="M32.9586 25.2557C40.1615 18.4924 51.8385 18.4924 59.0414 25.2557C59.3889 25.5821 59.3614 26.0876 58.9797 26.3849C58.5981 26.6821 58.007 26.6586 57.6594 26.3322C51.1981 20.2652 40.8023 20.2651 34.3409 26.3319C28.933 31.4237 28.0085 39.1903 31.6601 45.2022L31.6627 45.2064C33.7215 48.646 35.7162 52.2181 36.9849 56.0158L39.1801 62.5868H46.0239C46.5401 62.5868 46.9585 62.9446 46.9585 63.3861C46.9585 63.8275 46.5401 64.1854 46.0239 64.1854H37.7701L35.1876 56.455C33.9721 52.8167 32.0496 49.3613 30 45.937C26.009 39.3641 26.9958 30.8696 32.9578 25.2565L32.9586 25.2557Z" fill="#344974"/>
<path fill-rule="evenodd" clip-rule="evenodd" d="M57.6591 26.3319C51.1977 20.2651 40.8019 20.2652 34.3406 26.3322C33.993 26.6586 33.4019 26.6821 33.0203 26.3849C32.6386 26.0876 32.6111 25.5821 32.9586 25.2557C40.1615 18.4924 51.8385 18.4924 59.0413 25.2557L59.0422 25.2565C65.0042 30.8696 65.991 39.3642 61.9999 45.9371C59.9503 49.3614 58.0278 52.8168 56.8124 56.455L54.2299 64.1854H45.9761C45.4599 64.1854 45.0415 63.8275 45.0415 63.3861C45.0415 62.9446 45.4599 62.5868 45.9761 62.5868H52.8199L55.0151 56.0158C56.2838 52.2181 58.2785 48.646 60.3373 45.2065L60.3398 45.2022C63.9915 39.1903 63.067 31.4237 57.6591 26.3319Z" fill="#344974"/>
<path fill-rule="evenodd" clip-rule="evenodd" d="M38.4751 62.5868C38.9913 62.5868 39.4097 62.9447 39.4097 63.3861V74.296C39.4097 74.406 39.4561 74.4871 39.5082 74.5353C39.5582 74.5817 39.613 74.5999 39.6695 74.5999H52.3305C52.3869 74.5999 52.4417 74.5817 52.4917 74.5353C52.5438 74.4871 52.5903 74.406 52.5903 74.296V63.3861C52.5903 62.9447 53.0087 62.5868 53.5249 62.5868C54.0411 62.5868 54.4595 62.9447 54.4595 63.3861V74.296C54.4595 75.2889 53.5845 76.1986 52.3305 76.1986H39.6695C38.4154 76.1986 37.5405 75.2889 37.5405 74.296V63.3861C37.5405 62.9447 37.9589 62.5868 38.4751 62.5868Z" fill="#344974"/>
<path fill-rule="evenodd" clip-rule="evenodd" d="M40.2304 74.8115C40.6099 74.5123 41.2012 74.5328 41.5511 74.8573L44.9477 78.0078C45.5222 78.5482 46.4663 78.5708 47.1106 77.998L50.4967 74.8573C50.8466 74.5328 51.4379 74.5123 51.8174 74.8115C52.1969 75.1108 52.2208 75.6165 51.8709 75.941L48.4733 79.0924L48.4677 79.0974C47.1063 80.3172 44.9024 80.3392 43.567 79.0854L40.1769 75.941C39.827 75.6165 39.8509 75.1108 40.2304 74.8115Z" fill="#344974"/>
<path fill-rule="evenodd" clip-rule="evenodd" d="M46.0239 11.96C46.5401 11.96 46.9585 12.3178 46.9585 12.7593V16.6411C46.9585 17.0825 46.5401 17.4404 46.0239 17.4404C45.5077 17.4404 45.0893 17.0825 45.0893 16.6411V12.7593C45.0893 12.3178 45.5077 11.96 46.0239 11.96Z" fill="#F91C3D"/>
<path fill-rule="evenodd" clip-rule="evenodd" d="M31.1989 16.3408C31.5775 16.0408 32.1689 16.0601 32.5197 16.3839L35.5296 19.1624C35.8804 19.4863 35.8579 19.992 35.4792 20.292C35.1006 20.5921 34.5092 20.5728 34.1584 20.2489L31.1485 17.4704C30.7977 17.1465 30.8202 16.6408 31.1989 16.3408Z" fill="#F91C3D"/>
<path fill-rule="evenodd" clip-rule="evenodd" d="M60.8011 16.3408C61.1798 16.6408 61.2023 17.1465 60.8515 17.4704L57.8416 20.2489C57.4908 20.5728 56.8994 20.5921 56.5208 20.292C56.1421 19.992 56.1196 19.4863 56.4704 19.1624L59.4803 16.3839C59.8311 16.0601 60.4225 16.0408 60.8011 16.3408Z" fill="#F91C3D"/>
</svg>
