<svg width="343" height="344" viewBox="0 0 343 344" fill="none" xmlns="http://www.w3.org/2000/svg">
<path d="M40.481 145.532H302.185" stroke="#1C2833" stroke-width="4" stroke-linecap="round"/>
<path d="M271.612 72.5974H70.6074C53.7921 72.5974 40.0908 86.3387 40.0908 103.203V261.54C40.0908 278.404 53.7921 292.145 70.6074 292.145H271.612C288.427 292.145 302.128 278.404 302.128 261.54V103.203C301.973 86.3387 288.427 72.5974 271.612 72.5974Z" fill="white" stroke="#1C2833" stroke-width="4" stroke-linecap="round"/>
<path d="M109.455 208.461H90.7711C85.6331 208.461 81.585 204.245 81.585 199.248V180.51C81.585 175.357 85.7888 171.297 90.7711 171.297H109.455C114.593 171.297 118.641 175.513 118.641 180.51V199.248C118.641 204.245 114.593 208.461 109.455 208.461Z" fill="#C8E5FA" stroke="#1C2833" stroke-width="4" stroke-linecap="round"/>
<path d="M180.92 208.461H162.236C157.098 208.461 153.05 204.245 153.05 199.248V180.51C153.05 175.357 157.254 171.297 162.236 171.297H180.92C186.057 171.297 190.106 175.513 190.106 180.51V199.248C190.106 204.245 185.902 208.461 180.92 208.461Z" fill="#C8E5FA" stroke="#1C2833" stroke-width="4" stroke-linecap="round"/>
<path d="M252.229 209.242H233.545C228.407 209.242 224.359 205.026 224.359 200.029V181.291C224.359 176.138 228.563 172.078 233.545 172.078H252.229C257.367 172.078 261.415 176.294 261.415 181.291V200.029C261.415 205.182 257.367 209.242 252.229 209.242Z" fill="#C8E5FA" stroke="#1C2833" stroke-width="4" stroke-linecap="round"/>
<path d="M109.455 261.865H90.7711C85.6331 261.865 81.585 257.649 81.585 252.652V233.914C81.585 228.761 85.7888 224.701 90.7711 224.701H109.455C114.593 224.701 118.641 228.917 118.641 233.914V252.652C118.641 257.649 114.593 261.865 109.455 261.865Z" fill="#C8E5FA" stroke="#1C2833" stroke-width="4" stroke-linecap="round"/>
<path d="M180.92 261.865H162.236C157.098 261.865 153.05 257.649 153.05 252.652V233.914C153.05 228.761 157.254 224.701 162.236 224.701H180.92C186.057 224.701 190.106 228.917 190.106 233.914V252.652C190.106 257.649 185.902 261.865 180.92 261.865Z" fill="#C8E5FA" stroke="#1C2833" stroke-width="4" stroke-linecap="round"/>
<path d="M252.229 262.646H233.545C228.407 262.646 224.359 258.43 224.359 253.433V234.695C224.359 229.542 228.563 225.482 233.545 225.482H252.229C257.367 225.482 261.415 229.698 261.415 234.695V253.433C261.415 258.43 257.367 262.646 252.229 262.646Z" fill="#C8E5FA" stroke="#1C2833" stroke-width="4" stroke-linecap="round"/>
<path d="M70.6074 72.5974H271.612C288.427 72.5974 301.973 86.3387 302.128 103.203V145.753H40.0908V103.203C40.0908 86.3387 53.7921 72.5974 70.6074 72.5974Z" fill="#FB6077" stroke="#1C2833" stroke-width="4" stroke-linecap="round"/>
<path d="M112.724 51.5298V97.4381" stroke="#1C2833" stroke-width="4" stroke-linecap="round"/>
<path d="M229.341 51.5298V97.4381" stroke="#1C2833" stroke-width="4" stroke-linecap="round"/>
</svg>
