<svg width="343" height="344" viewBox="0 0 343 344" fill="none" xmlns="http://www.w3.org/2000/svg">
<path d="M171.422 44.9714C101.514 44.9714 44.8407 101.81 44.8407 171.922C44.685 242.19 101.359 299.029 171.422 299.029C241.486 299.029 298.004 242.346 298.004 172.078C298.004 101.81 241.33 44.9714 171.422 44.9714Z" fill="#F8E187" stroke="#1C2833" stroke-width="4" stroke-linecap="round"/>
<path d="M190.729 171.981H118.33" stroke="#1C2833" stroke-width="4" stroke-linecap="round" stroke-linejoin="round"/>
<path d="M216.73 242.093H137.325C144.798 228.507 147.445 216.171 147.445 203.367C147.445 195.403 146.667 187.128 145.577 177.915L144.331 165.891C143.708 160.113 143.241 154.18 142.774 147.465C141.84 133.412 146.199 122.95 153.361 115.454C160.524 107.959 170.488 103.275 180.764 102.182C191.04 100.932 201.472 103.118 209.568 108.74C217.664 114.361 223.425 123.106 224.671 136.535" stroke="#1C2833" stroke-width="4" stroke-linecap="round" stroke-linejoin="round"/>
</svg>
