<svg width="343" height="344" viewBox="0 0 343 344" fill="none" xmlns="http://www.w3.org/2000/svg">
<path d="M59.3205 241.097L81.5851 231.259C84.5434 230.01 86.2561 227.043 86.2561 223.92V155.214C86.2561 108.056 124.402 69.6432 171.422 69.6432H174.536C219.844 71.2048 256.744 110.711 256.744 157.4V224.076C256.744 227.199 258.612 230.166 261.415 231.415L283.524 241.253C291.309 244.688 294.89 253.901 291.309 261.709C288.818 267.33 283.368 270.922 277.14 270.922H64.9256C56.3623 270.765 49.6673 263.582 49.9787 254.994C50.2901 248.904 53.8711 243.595 59.3205 241.097ZM210.658 270.765C205.053 287.63 189.327 299.029 171.578 299.029C153.828 299.029 138.103 287.473 132.498 270.765" fill="#F1C40F"/>
<path d="M202.562 75.577C202.406 58.7127 188.549 44.9714 171.578 44.9714C154.763 44.9714 140.906 58.5566 140.594 75.577M210.658 270.765C205.053 287.63 189.327 299.029 171.578 299.029C153.828 299.029 138.103 287.473 132.498 270.765M59.3205 241.097L81.5851 231.259C84.5434 230.01 86.2561 227.043 86.2561 223.92V155.214C86.2561 108.056 124.402 69.6432 171.422 69.6432H174.536C219.844 71.2048 256.744 110.711 256.744 157.4V224.076C256.744 227.199 258.612 230.166 261.415 231.415L283.524 241.253C291.309 244.688 294.89 253.901 291.309 261.709C288.818 267.33 283.368 270.922 277.14 270.922H64.9256C56.3623 270.765 49.6673 263.582 49.9787 254.994C50.2901 248.904 53.8711 243.595 59.3205 241.097Z" stroke="#1C2833" stroke-width="4" stroke-linecap="round"/>
</svg>
