<svg width="343" height="344" viewBox="0 0 343 344" fill="none" xmlns="http://www.w3.org/2000/svg">
<path d="M87.2671 163.389L122.969 105.844C132.623 90.498 140.638 74.2391 148.471 57.7975C152.66 49.0286 161.404 43 171.604 43C181.805 43 190.73 49.0286 194.738 57.7975C202.388 74.2391 210.585 90.498 220.239 105.844L255.941 163.389" stroke="#1C2833" stroke-width="4" stroke-linecap="round"/>
<path d="M39.9073 164.12H303.301C312.227 164.12 319.513 171.427 319.513 180.379V256.741C319.513 265.693 312.227 273 303.301 273H39.543C30.6174 273 23.3313 265.693 23.3313 256.741V180.379" fill="#C2C8D5"/>
<path d="M39.9073 164.12H303.301C312.227 164.12 319.513 171.427 319.513 180.379V256.741C319.513 265.693 312.227 273 303.301 273H39.543C30.6174 273 23.3313 265.693 23.3313 256.741V180.379" stroke="#1C2833" stroke-width="4" stroke-linecap="round"/>
<path d="M39.543 164.12H51.9294" stroke="#1C2833" stroke-width="4" stroke-linecap="round"/>
<path d="M23.3313 180.379C23.3313 171.427 30.6174 164.12 39.543 164.12" stroke="#1C2833" stroke-width="4" stroke-linecap="round"/>
<path d="M171.422 86.2962C178.364 86.2962 183.991 80.6526 183.991 73.6909C183.991 66.7293 178.364 61.0857 171.422 61.0857C164.481 61.0857 158.854 66.7293 158.854 73.6909C158.854 80.6526 164.481 86.2962 171.422 86.2962Z" fill="#F5D657" stroke="#1C2833" stroke-width="4" stroke-linecap="round"/>
<path d="M73.3332 214.578L69.1294 229.412C68.818 230.349 68.0396 230.974 67.1054 230.974C66.1712 230.974 65.3927 230.349 65.0813 229.568L58.8534 208.8C58.8534 208.644 58.6978 208.332 58.6978 208.176C58.6978 207.083 59.6319 206.146 60.7218 206.146C61.8117 206.146 62.5902 206.926 62.7459 207.551L66.9497 222.854L70.9978 207.707C71.3092 206.77 72.0877 206.146 73.0219 206.146C73.956 206.146 74.7345 206.77 75.0459 207.707L79.094 222.854L83.2978 207.551C83.4535 206.926 84.0763 206.146 85.3219 206.146C86.4118 206.146 87.346 207.083 87.346 208.176C87.346 208.488 87.346 208.644 87.1903 208.8L80.9624 229.568C80.651 230.349 79.8725 230.974 78.9383 230.974C78.0042 230.974 77.2257 230.349 76.9143 229.412L73.3332 214.578Z" fill="#344974"/>
<path d="M105.718 216.608H112.569C113.659 216.608 114.437 217.389 114.437 218.482C114.437 219.575 113.659 220.355 112.569 220.355H105.718V227.07H115.371C116.461 227.07 117.24 227.851 117.24 228.944C117.24 230.037 116.461 230.818 115.371 230.818H103.694C102.604 230.818 101.67 229.881 101.67 228.788V208.488C101.67 207.395 102.604 206.458 103.694 206.458H114.904C115.994 206.458 116.773 207.239 116.773 208.332C116.773 209.425 115.994 210.206 114.904 210.206H105.718V216.608Z" fill="#344974"/>
<path d="M144.175 226.914C145.421 226.914 146.199 227.851 146.199 228.944C146.199 230.037 145.421 230.974 144.175 230.974H133.432C132.187 230.974 131.408 230.037 131.408 228.944V208.332C131.408 207.239 132.342 206.302 133.432 206.302C134.522 206.302 135.456 207.239 135.456 208.332V227.07H144.175V226.914Z" fill="#344974"/>
<path d="M158.967 218.638C158.967 210.05 163.015 205.833 170.332 205.833C174.692 205.833 177.494 207.551 179.051 209.737C179.363 210.206 179.519 210.518 179.519 210.986C179.519 212.08 178.584 212.86 177.494 212.86C177.027 212.86 176.405 212.704 175.938 212.08C174.381 210.518 172.824 209.581 170.332 209.581C165.506 209.581 163.326 212.548 163.326 218.482C163.326 224.884 165.506 227.382 170.332 227.382C172.979 227.382 174.381 226.758 176.249 225.04C176.872 224.415 177.339 224.259 177.806 224.259C178.896 224.259 179.83 225.196 179.83 226.289C179.83 226.758 179.674 227.07 179.519 227.382C177.806 229.725 174.381 231.286 170.488 231.286C163.17 231.286 158.967 227.382 158.967 218.638Z" fill="#344974"/>
<path d="M193.064 218.638C193.064 210.05 197.268 205.833 204.586 205.833C211.904 205.833 216.107 209.893 216.107 218.638C216.107 227.07 211.904 231.286 204.586 231.286C197.112 231.286 193.064 227.07 193.064 218.638ZM197.424 218.638C197.424 224.572 199.759 227.538 204.586 227.538C209.412 227.538 211.748 224.572 211.748 218.638C211.748 212.548 209.412 209.737 204.586 209.737C199.759 209.581 197.424 212.548 197.424 218.638Z" fill="#344974"/>
<path d="M239.773 225.821L234.168 215.671V228.944C234.168 230.037 233.234 230.974 232.144 230.974C231.054 230.974 230.12 230.037 230.12 228.944V208.02C230.12 206.927 231.054 205.99 232.144 205.99C233.078 205.99 233.701 206.458 234.012 207.083L241.641 220.824L249.271 207.083C249.582 206.458 250.205 205.99 251.139 205.99C252.229 205.99 253.163 206.927 253.163 208.02V228.944C253.163 230.037 252.229 230.974 251.139 230.974C250.049 230.974 249.115 230.037 249.115 228.944V215.671L243.51 225.821C243.198 226.446 242.42 226.914 241.797 226.914C241.174 226.914 240.24 226.602 239.773 225.821Z" fill="#344974"/>
<path d="M272.625 216.608H279.476C280.566 216.608 281.344 217.389 281.344 218.482C281.344 219.575 280.566 220.355 279.476 220.355H272.625V227.07H282.278C283.368 227.07 284.147 227.851 284.147 228.944C284.147 230.037 283.368 230.818 282.278 230.818H270.601C269.511 230.818 268.577 229.881 268.577 228.788V208.488C268.577 207.395 269.511 206.458 270.601 206.458H281.811C282.901 206.458 283.68 207.239 283.68 208.332C283.68 209.425 282.901 210.206 281.811 210.206H272.625V216.608Z" fill="#344974"/>
</svg>
