<svg width="223" height="44" viewBox="0 0 223 44" fill="none" xmlns="http://www.w3.org/2000/svg">
<path d="M1.87921 20.2691H4.44747L5.70028 5.27571H3.06938V0.97998H12.3402L16.3074 12.6369C16.5788 13.3876 16.7459 13.9506 16.8294 14.3885C16.892 14.6179 16.9338 14.8473 16.9547 15.0767H17.0173C17.0591 14.8473 17.08 14.6179 17.1426 14.3885C17.247 13.9506 17.4349 13.4084 17.6646 12.6369L21.6318 0.97998H30.9026V5.25486H28.2717L29.5245 20.2482H32.0928V24.5231H21.4022V20.2691H23.7407L23.177 11.8027C23.1352 11.3023 23.177 10.6558 23.2187 10.1136L23.3231 9.15439H23.1978C23.1561 9.44633 23.0934 9.73827 23.0308 10.0511C22.9264 10.5515 22.8011 11.1771 22.5714 11.6568L19.4603 20.2691H14.5117L11.4006 11.6568C11.2335 11.1563 11.0456 10.5307 10.9412 10.0511C10.8786 9.75913 10.8159 9.46719 10.7742 9.15439H10.6489L10.7533 10.1136C10.795 10.635 10.8159 11.3023 10.795 11.8027L10.2313 20.2691H12.5698V24.544H1.87921V20.2691Z" fill="#344974"/>
<path d="M43.7022 20.2067C45.7902 20.2067 47.565 18.6635 47.565 16.1195C47.565 13.5754 45.7902 11.928 43.7022 11.928C41.6142 11.928 39.8393 13.5754 39.8393 16.1195C39.8602 18.6427 41.635 20.2067 43.7022 20.2067ZM43.6813 7.19434C49.0684 7.19434 53.3488 10.7602 53.3488 16.1195C53.3488 21.4161 49.0684 24.9403 43.723 24.9403C38.3777 24.9403 34.0973 21.4161 34.0973 16.1195C34.0764 10.7394 38.3986 7.19434 43.6813 7.19434Z" fill="#344974"/>
<path d="M55.5621 20.4362H57.7127V12.4286C57.7127 11.9281 57.4831 11.6987 56.9819 11.6987H55.395V7.59069H60.803C62.3481 7.59069 63.1416 8.3414 63.1416 9.50917V10.0722V10.3433C63.1416 10.385 63.1416 10.4476 63.0998 10.4684H63.1625C63.4548 9.84282 63.8933 9.32149 64.457 8.82102C65.3758 7.9869 66.7956 7.21533 68.9463 7.21533C72.1409 7.21533 74.6883 8.82102 74.6883 13.5755V20.457H76.839V24.586H68.988V14.5973C68.988 13.0125 68.3616 12.366 67.067 12.366C64.5197 12.366 63.413 14.9935 63.413 17.3708V20.4362H65.5637V24.5651H55.5621V20.4362Z" fill="#344974"/>
<path d="M89.2209 13.9716C89.2209 12.6161 88.3648 11.4692 87.0702 11.4692C85.3789 11.4692 84.6272 12.6578 84.3349 13.9716H89.2209ZM87.1955 7.19434C92.2694 7.19434 95.1091 10.6977 95.1091 15.3896C95.1091 15.6607 95.0673 16.0777 95.0464 16.4531L94.9838 17.1204H84.1888C84.6272 19.3308 86.2976 20.2484 88.156 20.2484C89.4505 20.2484 90.599 19.8104 91.4968 19.4142C92.0188 19.1849 92.5199 18.9138 92.9584 18.6218L95.0464 22.5839C94.4827 23.0218 93.8354 23.418 93.1046 23.7725C91.81 24.3981 90.077 24.9612 87.7175 24.9612C81.6414 24.9612 78.3841 20.582 78.3841 16.0569C78.3632 11.073 81.7249 7.19434 87.1955 7.19434Z" fill="#344974"/>
<path d="M98.0949 26.1079C98.3246 26.2747 98.5543 26.3998 98.8257 26.5041C99.3268 26.7335 100.016 26.9003 100.914 26.9003C102.104 26.9003 103.231 26.5666 103.712 25.524L103.774 25.3572L98.1576 11.7192H96.2366V7.59033H105.57V11.7192H103.92L106.008 18.0169C106.176 18.5173 106.238 19.0804 106.343 19.4974C106.384 19.7268 106.405 19.9979 106.405 20.2273H106.531C106.572 19.9979 106.593 19.7268 106.656 19.4974C106.76 19.0595 106.885 18.5173 107.053 18.0169L109.057 11.7192H107.533V7.59033H116.344V11.7192H114.59L109.12 26.0453C107.533 30.0908 104.526 31.488 101.206 31.488C99.7445 31.488 98.5752 31.196 97.6773 30.8207C97.1762 30.633 96.7168 30.3828 96.3619 30.1534L98.0949 26.1079Z" fill="#344974"/>
<path d="M118.39 21.9792H121.293V3.81619H118.39V1.29297H135.241V6.69392H132.38V3.98302H124.592V11.4693H132.84V14.1802H124.592V21.8541H132.923V19.0389H135.804V24.5442H118.39V21.9792Z" fill="#344974"/>
<path d="M138.707 22.0833H141.212L145.201 15.9525L141.505 10.343H138.79V7.88232H143.468L146.453 12.7202C146.746 13.2207 147.017 13.8046 147.017 13.8046H147.08C147.08 13.8046 147.351 13.2416 147.664 12.7202L150.692 7.88232H155.14V10.3638H152.592L148.875 15.9108L153.01 22.0624H155.244V24.5439H150.984L147.623 19.143C147.289 18.6425 147.038 18.0795 147.038 18.0795H146.975C146.975 18.0795 146.746 18.6008 146.391 19.1638L143.092 24.5439H138.728V22.0833H138.707Z" fill="#344974"/>
<path d="M167.939 22.1877C170.57 22.1877 172.762 20.0399 172.762 16.2655C172.762 12.637 170.821 10.3015 168.002 10.3015C165.517 10.3015 163.22 12.0532 163.22 16.3072C163.22 19.2475 164.849 22.1877 167.939 22.1877ZM160.088 28.6731V11.0731C160.088 10.5726 159.817 10.3432 159.357 10.3432H157.311V7.88254H161.007C162.489 7.88254 163.053 8.54983 163.053 9.52993V9.65505C163.053 10.1764 162.99 10.6143 162.99 10.6143H163.053C163.053 10.6143 164.431 7.48633 168.67 7.48633C173.159 7.48633 175.999 11.0522 175.999 16.2238C175.999 21.5204 172.804 24.9612 168.44 24.9612C164.786 24.9612 163.262 22.1252 163.262 22.1252H163.199C163.199 22.1252 163.304 22.7091 163.304 23.5849V28.6939H165.935V31.1754H157.478V28.6939H160.088V28.6731Z" fill="#344974"/>
<path d="M191.012 14.4721C190.907 11.5318 189.132 10.0304 187.023 10.0304C184.581 10.0304 182.597 11.6778 182.138 14.4721H191.012ZM187.086 7.48633C191.847 7.48633 194.311 10.9896 194.311 15.3062C194.311 15.7441 194.206 16.5157 194.206 16.5157H181.991C182.2 20.2067 184.789 22.1877 187.775 22.1877C190.677 22.1877 192.766 20.311 192.766 20.311L194.081 22.6465C194.081 22.6465 191.575 24.9612 187.587 24.9612C182.346 24.9612 178.734 21.1659 178.734 16.2238C178.734 10.9062 182.325 7.48633 187.086 7.48633Z" fill="#344974"/>
<path d="M197.338 22.0833H199.844V11.0729C199.844 10.5724 199.572 10.343 199.113 10.343H197.025V7.88236H200.784C202.224 7.88236 202.934 8.46625 202.934 9.8217V10.8852C202.934 11.5525 202.872 12.0321 202.872 12.0321H202.934C203.686 9.59231 205.649 7.67383 208.217 7.67383C208.655 7.67383 209.052 7.73639 209.052 7.73639V10.9061C209.052 10.9061 208.655 10.8018 208.133 10.8018C204.563 10.8018 203.059 14.3885 203.059 17.6625V22.0833H205.523V24.5648H197.338V22.0833Z" fill="#344974"/>
<path d="M213.04 10.3433H210.242V7.8826H213.124V3.29492H216.256V7.8826H220.244V10.3641H216.256V18.184C216.256 21.5831 218.573 22.0001 219.826 22.0001C220.286 22.0001 220.578 21.9584 220.578 21.9584V24.6276C220.578 24.6276 220.119 24.6902 219.43 24.6902C217.321 24.6902 213.061 24.0229 213.061 18.4551V10.3433H213.04Z" fill="#344974"/>
<path d="M48.4628 26.0454C51.3443 26.0454 53.6202 27.943 53.6202 30.8208C53.6202 33.6568 51.3234 35.5336 48.4628 35.5336C45.6022 35.5336 43.3054 33.6568 43.3054 30.8208C43.3472 27.943 45.644 26.0454 48.4628 26.0454Z" fill="#344974"/>
<path d="M40.8207 34.1782C42.5955 34.1782 44.0153 35.3669 44.0153 37.1394C44.0153 38.891 42.5955 40.0588 40.8207 40.0588C39.0459 40.0588 37.626 38.891 37.626 37.1394C37.626 35.346 39.0668 34.1782 40.8207 34.1782Z" fill="#344974"/>
<path d="M47.7946 39.4331C48.9222 39.4331 49.82 40.1838 49.82 41.3099C49.82 42.4151 48.9222 43.1658 47.7946 43.1658C46.6671 43.1658 45.7693 42.4359 45.7693 41.3099C45.7902 40.1838 46.688 39.4331 47.7946 39.4331Z" fill="#344974"/>
</svg>
