<svg width="36" height="36" viewBox="0 0 36 36" fill="none" xmlns="http://www.w3.org/2000/svg">
<path d="M13.2983 24.2297H22.7314" stroke="#8D9398" stroke-linecap="round"/>
<path d="M13.2983 26.3603H17.955" stroke="#8D9398" stroke-linecap="round"/>
<path d="M18.0149 22.2323C20.504 22.2323 22.5218 20.2384 22.5218 17.7788C22.5218 15.3192 20.504 13.3253 18.0149 13.3253C15.5257 13.3253 13.5079 15.3192 13.5079 17.7788C13.5079 20.2384 15.5257 22.2323 18.0149 22.2323Z" stroke="#8D9398" stroke-linecap="round"/>
<path d="M26.4 12.2601V29.3934C26.4 29.7337 26.1305 30 25.7861 30H10.2139C9.86952 30 9.60001 29.7337 9.60001 29.3934V7.80662C9.60001 7.46632 9.86952 7.2 10.2139 7.2H21.2492C21.4139 7.2 21.5636 7.25918 21.6834 7.37754L26.2203 11.831C26.3401 11.9494 26.4 12.0973 26.4 12.2601Z" stroke="#8D9398" stroke-linecap="round"/>
<path d="M21.5035 7.36261V11.4018C21.5035 11.7421 21.773 12.0084 22.1174 12.0084H26.2351" stroke="#8D9398" stroke-linecap="round"/>
<path d="M18.3293 17.6216H16.0384" stroke="#8D9398" stroke-linecap="round" stroke-linejoin="round"/>
<path d="M19.1528 19.8115H16.6373C16.8768 19.3824 16.9667 18.9977 16.9667 18.5982C16.9667 18.3467 16.9367 18.0952 16.9068 17.7993L16.8619 17.4294C16.8469 17.2518 16.8319 17.0595 16.8169 16.8523C16.787 16.4085 16.9218 16.083 17.1464 15.8462C17.371 15.6095 17.6854 15.4616 18.0148 15.432C18.3442 15.3876 18.6736 15.4616 18.9282 15.6391C19.1827 15.8167 19.3624 16.083 19.4073 16.512" stroke="#8D9398" stroke-linecap="round" stroke-linejoin="round"/>
</svg>
