<svg width="36" height="36" viewBox="0 0 36 36" fill="none" xmlns="http://www.w3.org/2000/svg">
<path d="M17.8958 19.2037C21.06 19.2037 23.625 16.6957 23.625 13.6019C23.625 10.508 21.06 8 17.8958 8C14.7317 8 12.1667 10.508 12.1667 13.6019C12.1667 16.6957 14.7317 19.2037 17.8958 19.2037Z" stroke="#8D9398" stroke-linecap="round" stroke-linejoin="round"/>
<path d="M27.7582 26.6466C27.1145 24.7806 26.3788 22.9686 25.1702 21.4136C23.0814 22.7117 20.6116 23.469 17.9973 23.469C15.3829 23.469 12.9131 22.7117 10.8243 21.4136C9.62884 22.9686 8.88002 24.767 8.23629 26.6466C8.21002 26.7683 8.14433 26.9035 8.11806 27.0252C7.63198 28.4855 8.70923 30 10.2069 30H25.7876C27.2984 30 28.3757 28.4855 27.8765 27.0252C27.8502 26.9035 27.7845 26.7818 27.7582 26.6466Z" stroke="#8D9398" stroke-linecap="round" stroke-linejoin="round"/>
</svg>
